<svg id="Yelp" xmlns="http://www.w3.org/2000/svg" width="24" height="24" viewBox="0 0 24 24">
  <rect id="Base" width="24" height="24" rx="2" fill="#6d8297"/>
  <g id="yelp-2" data-name="yelp" transform="translate(6.525 5.25)">
    <path id="Path_3610" data-name="Path 3610" d="M133.289,336.421a1.186,1.186,0,0,0-.8.442l-1.7,1.762a1.07,1.07,0,0,0,.383,1.837l1.151.477a1.383,1.383,0,0,0,.529.112h0a1.06,1.06,0,0,0,1.041-1.14l.046-2.446a1.193,1.193,0,0,0-.251-.877A.546.546,0,0,0,133.289,336.421Z" transform="translate(-128.252 -327.551)" fill="#fff"/>
    <path id="Path_3611" data-name="Path 3611" d="M126.976,0a1.49,1.49,0,0,0-.35.043l-1.641.4a1.224,1.224,0,0,0-.877.692,1.224,1.224,0,0,0,.106,1.112l2.4,4.123c.24.413.484.624.726.628h.006a.4.4,0,0,0,.081-.008c.28-.059.437-.371.466-.929l.247-4.763a1.264,1.264,0,0,0-.32-.951,1.141,1.141,0,0,0-.84-.346Z" transform="translate(-122.025)" fill="#fff"/>
    <path id="Path_3612" data-name="Path 3612" d="M289.788,320.322l-2.312-.8a1.733,1.733,0,0,0-.555-.107.627.627,0,0,0-.584.284,1.048,1.048,0,0,0,.119,1.018l1.151,2.159a1.121,1.121,0,0,0,.976.659h0a1.184,1.184,0,0,0,.889-.456l.809-.947a1.07,1.07,0,0,0-.493-1.81Z" transform="translate(-279.978 -310.994)" fill="#fff"/>
    <path id="Path_3613" data-name="Path 3613" d="M296.283,150.126l-.651-1.062a1.141,1.141,0,0,0-.956-.6,1.161,1.161,0,0,0-.918.51l-1.474,1.952c-.173.23-.438.668-.26,1.026a.726.726,0,0,0,.722.349h0a2.068,2.068,0,0,0,.358-.034l2.409-.428a1.07,1.07,0,0,0,.77-1.711Z" transform="translate(-285.542 -144.547)" fill="#fff"/>
    <path id="Path_3614" data-name="Path 3614" d="M53,223.39c.025-.314-.222-.613-.7-.843l-2.2-1.07a1.346,1.346,0,0,0-.589-.146,1.061,1.061,0,0,0-1.039,1.077l-.1,1.242a1.2,1.2,0,0,0,.28.924,1.02,1.02,0,0,0,.762.317,1.448,1.448,0,0,0,.42-.066l2.341-.712C52.68,223.961,52.971,223.7,53,223.39Z" transform="translate(-48.369 -215.496)" fill="#fff"/>
  </g>
</svg>
