<svg id="Vision_Icon" data-name="Vision Icon" xmlns="http://www.w3.org/2000/svg" width="50" height="50" viewBox="0 0 50 50">
  <rect id="Base" width="50" height="50" fill="none" opacity="0.002"/>
  <g id="Certified_Technicians" data-name="Certified Technicians" transform="translate(8.999 2)">
    <g id="light-bulb">
      <path id="XMLID_49_" d="M24.814,36.7V37.93a1.94,1.94,0,0,1-1.634,1.927l-.3,1.115A1.376,1.376,0,0,1,21.554,42H18.586a1.376,1.376,0,0,1-1.326-1.028l-.291-1.115a1.949,1.949,0,0,1-1.643-1.936V36.694A1.174,1.174,0,0,1,16.5,35.51h7.143A1.187,1.187,0,0,1,24.814,36.7Zm5.5-16.541a10.35,10.35,0,0,1-2.874,7.181,9.526,9.526,0,0,0-2.515,5.151,1.7,1.7,0,0,1-1.677,1.443H16.892A1.682,1.682,0,0,1,15.224,32.5a9.631,9.631,0,0,0-2.532-5.168,10.293,10.293,0,1,1,17.623-7.173ZM21.229,13.9a1.161,1.161,0,0,0-1.155-1.167A7.437,7.437,0,0,0,12.683,20.2a1.155,1.155,0,1,0,2.31,0,5.114,5.114,0,0,1,5.082-5.133A1.156,1.156,0,0,0,21.229,13.9ZM20.074,6.421a1.161,1.161,0,0,0,1.155-1.167V1.167a1.155,1.155,0,1,0-2.31,0V5.254A1.161,1.161,0,0,0,20.074,6.421Zm18.8,12.565H34.823a1.167,1.167,0,0,0,0,2.333H38.87a1.167,1.167,0,0,0,0-2.333Zm-8.367-8.2a1.147,1.147,0,0,0,.813-.337l2.866-2.9a1.172,1.172,0,0,0,0-1.651,1.143,1.143,0,0,0-1.634,0L29.682,8.8a1.162,1.162,0,0,0,.821,1.988ZM7.593,5.894ZM31.316,29.867a1.143,1.143,0,0,0-1.634,0,1.172,1.172,0,0,0,0,1.651l2.866,2.9a1.148,1.148,0,0,0,1.625,0,1.172,1.172,0,0,0,0-1.651Z" transform="translate(-7.554)" fill="#76ca3c"/>
    </g>
  </g>
</svg>
