<svg id="Location_Icon" data-name="Location Icon" xmlns="http://www.w3.org/2000/svg" width="26" height="37" viewBox="0 0 26 37">
  <g id="Group_1017" data-name="Group 1017" transform="translate(0)">
    <path id="Path_3621" data-name="Path 3621" d="M83.573,0a13.219,13.219,0,0,0-13,13.4c0,9.17,11.634,22.631,12.129,23.2a1.148,1.148,0,0,0,1.742,0c.5-.569,12.129-14.03,12.129-23.2A13.22,13.22,0,0,0,83.573,0Zm0,20.142A6.651,6.651,0,0,1,77.032,13.4a6.544,6.544,0,1,1,13.081,0A6.651,6.651,0,0,1,83.573,20.142Z" transform="translate(-70.573)" fill="#76ca3c"/>
  </g>
</svg>
