<svg xmlns="http://www.w3.org/2000/svg" width="60" height="60" viewBox="0 0 60 60">
  <g id="Air_conditioning_Icon" data-name="Air conditioning Icon" transform="translate(-392 -2420)">
    <g id="_icon" data-name=" icon" transform="translate(400 2429)">
      <path id="Path_26" data-name="Path 26" d="M30.947,1C25.46,1,20.81,4.606,20.029,9.463a1.148,1.148,0,0,0,.33.985,1.455,1.455,0,0,0,1.049.419,1.342,1.342,0,0,0,1.378-1.048c.624-4.06,4.808-6.9,9.346-6.339s7.709,4.3,7.085,8.362c-.649,3.759-4.309,6.507-8.56,6.426H3.378a1.241,1.241,0,1,0,0,2.467H30.561c5.907.086,10.887-3.923,11.413-9.188a9.268,9.268,0,0,0-2.949-7.419A11.674,11.674,0,0,0,30.947,1Z" transform="translate(0 0)" fill="#9f74fb"/>
      <path id="Path_27" data-name="Path 27" d="M22.707,19H3.233a1.233,1.233,0,0,0,0,2.467H22.707a4.932,4.932,0,1,1-4.822,5.957,1.249,1.249,0,0,0-2.467.395A7.4,7.4,0,1,0,22.707,19Z" transform="translate(0 7.2)" fill="#9f74fb"/>
      <path id="Path_28" data-name="Path 28" d="M10.109,12.484h-6.8A1.233,1.233,0,0,0,2.08,13.717h0A1.233,1.233,0,0,0,3.313,14.95h6.734a5.723,5.723,0,0,0,5.772-5.007A5.55,5.55,0,0,0,4.978,7.81,1.233,1.233,0,0,0,6.212,9.4a1.233,1.233,0,0,0,1.233-.937A3.083,3.083,0,0,1,13.451,9.7,3.219,3.219,0,0,1,10.109,12.484Z" transform="translate(0.019 0.664)" fill="#9f74fb"/>
    </g>
    <g id="Base" transform="translate(392 2420)" fill="#9f74fb" stroke="#707070" stroke-width="1" opacity="0">
      <rect width="60" height="60" stroke="none"/>
      <rect x="0.5" y="0.5" width="59" height="59" fill="none"/>
    </g>
  </g>
</svg>
