<svg xmlns="http://www.w3.org/2000/svg" width="60" height="60" viewBox="0 0 60 60">
  <g id="Heating_Icon" data-name="Heating Icon" transform="translate(-236 -1263)">
    <path id="fire" d="M27.164,15.627l-.225-.21-.042-.033A11.365,11.365,0,0,1,22.535,4.858L23.12,0,18.1,2.551A17.086,17.086,0,0,0,8.671,15.9L3.042,14.349l-.439.946A25.146,25.146,0,0,0,0,26.163a13.523,13.523,0,0,0,4.446,9.8A15.347,15.347,0,0,0,14.923,40h2.413c8.182,0,14.876-6.212,14.922-13.849A12.715,12.715,0,0,0,27.164,15.627ZM15.526,37.651a5.452,5.452,0,0,1-5.591-5.179,10.166,10.166,0,0,1,.738-3.75l3.538.973.015-1.552a6.688,6.688,0,0,1,3.191-5.571,7.349,7.349,0,0,0,2.859,5.855l.073.068.07.06a4.616,4.616,0,0,1,1.905,3.923,5.422,5.422,0,0,1-5.591,5.173Zm8.405-1.774a7.1,7.1,0,0,0,.885-3.385,6.9,6.9,0,0,0-2.747-5.7l-.116-.108-.042-.032a5.058,5.058,0,0,1-1.96-4.745l.427-3.546L16.82,20.171a9.182,9.182,0,0,0-4.938,6.436l-2.648-.728-.439.945A13.118,13.118,0,0,0,7.442,32.5a7.188,7.188,0,0,0,.876,3.35,11.555,11.555,0,0,1-5.824-9.718,22.214,22.214,0,0,1,1.968-8.947L11.062,19l.015-1.552A14.644,14.644,0,0,1,19.287,4.618l.818-.416-.047.392a13.61,13.61,0,0,0,5.2,12.565l.182.17.07.06a10.419,10.419,0,0,1,4.25,8.749A11.442,11.442,0,0,1,23.931,35.876Zm0,0" transform="translate(250 1273)" fill="#fca120"/>
    <g id="Base" transform="translate(236 1263)" fill="#fca120" stroke="#707070" stroke-width="1" opacity="0.003">
      <rect width="60" height="60" stroke="none"/>
      <rect x="0.5" y="0.5" width="59" height="59" fill="none"/>
    </g>
  </g>
</svg>
