<svg xmlns="http://www.w3.org/2000/svg" width="60" height="60" viewBox="0 0 60 60">
  <g id="Refrigeration_Icon" data-name="Refrigeration Icon" transform="translate(-1161 -3053)">
    <g id="freezer" transform="translate(1154.895 3063)">
      <g id="Group_73" data-name="Group 73" transform="translate(17.105 3.404)">
        <g id="Group_72" data-name="Group 72" transform="translate(0)">
          <path id="Path_3" data-name="Path 3" d="M38.788,55.545a8.954,8.954,0,0,1-.95-1.148,4.75,4.75,0,0,1-.273-.41,8.824,8.824,0,0,1-1.319-4.655,8.383,8.383,0,0,1,.123-1.463,8.885,8.885,0,0,1,1.183-3.185c.1-.157.205-.321.314-.478a.684.684,0,0,0-.116-.916,3.418,3.418,0,0,0-2.187-.793H20.523A3.418,3.418,0,0,0,17.1,45.914V73.94a3.418,3.418,0,0,0,3.418,3.418H35.561a3.418,3.418,0,0,0,3.418-3.418V56.017A.684.684,0,0,0,38.788,55.545ZM37.612,73.94a2.051,2.051,0,0,1-2.051,2.051H20.523a2.051,2.051,0,0,1-2.051-2.051V45.914a2.051,2.051,0,0,1,2.051-2.051H35.561a2.051,2.051,0,0,1,.82.164,10.254,10.254,0,0,0-1.367,3.623,9.757,9.757,0,0,0-.137,1.682,10.205,10.205,0,0,0,1.531,5.386c.1.164.205.328.314.472a9.922,9.922,0,0,0,.889,1.107V73.94Z" transform="translate(-17.105 -42.496)" fill="#01baef"/>
        </g>
      </g>
      <g id="Group_75" data-name="Group 75" transform="translate(19.839 36.899)">
        <g id="Group_74" data-name="Group 74" transform="translate(0)">
          <path id="Path_4" data-name="Path 4" d="M55.34,460.629H51.923a.684.684,0,0,0-.684.684v1.367a2.051,2.051,0,0,0,2.051,2.051h.684a2.051,2.051,0,0,0,2.051-2.051v-1.367A.684.684,0,0,0,55.34,460.629Zm-.684,2.051a.684.684,0,0,1-.684.684H53.29a.683.683,0,0,1-.684-.684V462h2.051v.684Z" transform="translate(-51.239 -460.629)" fill="#01baef"/>
        </g>
      </g>
      <g id="Group_77" data-name="Group 77" transform="translate(31.46 36.899)">
        <g id="Group_76" data-name="Group 76" transform="translate(0)">
          <path id="Path_5" data-name="Path 5" d="M200.406,460.629h-3.418a.683.683,0,0,0-.684.684v1.367a2.051,2.051,0,0,0,2.051,2.051h.684a2.051,2.051,0,0,0,2.051-2.051v-1.367A.684.684,0,0,0,200.406,460.629Zm-.684,2.051a.683.683,0,0,1-.684.684h-.684a.683.683,0,0,1-.684-.684V462h2.051v.684Z" transform="translate(-196.305 -460.629)" fill="#01baef"/>
        </g>
      </g>
      <g id="Group_79" data-name="Group 79" transform="translate(17.105 15.025)">
        <g id="Group_78" data-name="Group 78" transform="translate(0)">
          <path id="Path_6" data-name="Path 6" d="M37.285,187.563H17.79a.684.684,0,0,0,0,1.367h19.5a.684.684,0,1,0,0-1.367Z" transform="translate(-17.106 -187.563)" fill="#01baef"/>
        </g>
      </g>
      <g id="Group_81" data-name="Group 81" transform="translate(19.839 17.759)">
        <g id="Group_80" data-name="Group 80" transform="translate(0)">
          <path id="Path_7" data-name="Path 7" d="M51.923,221.7a.683.683,0,0,0-.684.684v4.1a.684.684,0,1,0,1.367,0v-4.1A.683.683,0,0,0,51.923,221.7Z" transform="translate(-51.239 -221.696)" fill="#01baef"/>
        </g>
      </g>
      <g id="Group_83" data-name="Group 83" transform="translate(19.839 8.189)">
        <g id="Group_82" data-name="Group 82" transform="translate(0)">
          <path id="Path_8" data-name="Path 8" d="M51.923,102.229a.683.683,0,0,0-.684.684v4.1a.684.684,0,1,0,1.367,0v-4.1A.684.684,0,0,0,51.923,102.229Z" transform="translate(-51.239 -102.229)" fill="#01baef"/>
        </g>
      </g>
      <g id="Group_85" data-name="Group 85" transform="translate(34.877 0)">
        <g id="Group_84" data-name="Group 84" transform="translate(0 0)">
          <path id="Path_9" data-name="Path 9" d="M255.13,1.888a10.253,10.253,0,0,0-14.294,2.439c-.123.178-.239.355-.362.547a10.253,10.253,0,0,0-1.367,3.684,9.753,9.753,0,0,0-.137,1.682,10.206,10.206,0,0,0,1.524,5.386c.1.164.205.328.314.472a10.254,10.254,0,0,0,1.087,1.312,9.651,9.651,0,0,0,.991.889A10.241,10.241,0,1,0,255.13,1.888Zm1.1,13.8a8.886,8.886,0,0,1-12.473,1.536,8.164,8.164,0,0,1-.875-.766,8.952,8.952,0,0,1-.95-1.148,4.741,4.741,0,0,1-.273-.41,8.823,8.823,0,0,1-1.319-4.655,8.387,8.387,0,0,1,.13-1.456A8.886,8.886,0,0,1,241.649,5.6c.1-.157.205-.321.314-.478a8.878,8.878,0,1,1,14.264,10.563Z" transform="translate(-238.969 0)" fill="#01baef"/>
        </g>
      </g>
      <g id="Group_87" data-name="Group 87" transform="translate(44.448 2.72)">
        <g id="Group_86" data-name="Group 86">
          <path id="Path_10" data-name="Path 10" d="M359.123,33.963a.684.684,0,0,0-.684.684V48.318a.684.684,0,0,0,1.367,0V34.647A.684.684,0,0,0,359.123,33.963Z" transform="translate(-358.439 -33.963)" fill="#01baef"/>
        </g>
      </g>
      <g id="Group_89" data-name="Group 89" transform="translate(42.432 3.425)">
        <g id="Group_88" data-name="Group 88">
          <path id="Path_11" data-name="Path 11" d="M336.357,44.22l-2.051-1.367a.684.684,0,0,0-.759,1.135l2.051,1.367a.683.683,0,0,0,.759-1.135Z" transform="translate(-333.275 -42.758)" fill="#01baef"/>
        </g>
      </g>
      <g id="Group_91" data-name="Group 91" transform="translate(44.446 3.425)">
        <g id="Group_90" data-name="Group 90">
          <path id="Path_12" data-name="Path 12" d="M361.709,43.094a.684.684,0,0,0-.936-.241l-2.051,1.367a.682.682,0,1,0,.759,1.135l2.051-1.367A.684.684,0,0,0,361.709,43.094Z" transform="translate(-358.42 -42.758)" fill="#01baef"/>
        </g>
      </g>
      <g id="Group_93" data-name="Group 93" transform="translate(42.395 14.32)">
        <g id="Group_92" data-name="Group 92">
          <path id="Path_13" data-name="Path 13" d="M336.129,179.038a.684.684,0,0,0-.957-.135l-2.051,1.367a.682.682,0,1,0,.759,1.135l2.051-1.367a.684.684,0,0,0,.2-1Z" transform="translate(-332.819 -178.766)" fill="#01baef"/>
        </g>
      </g>
      <g id="Group_95" data-name="Group 95" transform="translate(44.482 14.362)">
        <g id="Group_94" data-name="Group 94" transform="translate(0)">
          <path id="Path_14" data-name="Path 14" d="M361.957,180.754l-2.051-1.367a.684.684,0,0,0-.759,1.135l2.051,1.367a.683.683,0,0,0,.759-1.135Z" transform="translate(-358.875 -179.292)" fill="#01baef"/>
        </g>
      </g>
      <g id="Group_97" data-name="Group 97" transform="translate(37.612 9.556)">
        <g id="Group_96" data-name="Group 96" transform="translate(0)">
          <path id="Path_15" data-name="Path 15" d="M287.461,119.3H273.79a.684.684,0,1,0,0,1.367h13.671a.684.684,0,0,0,0-1.367Z" transform="translate(-273.106 -119.296)" fill="#01baef"/>
        </g>
      </g>
      <g id="Group_99" data-name="Group 99" transform="translate(38.299 9.591)">
        <g id="Group_98" data-name="Group 98">
          <path id="Path_16" data-name="Path 16" d="M284.119,119.869a.684.684,0,0,0-.957.135l-1.367,2.051a.682.682,0,0,0,1.135.759l1.367-2.051A.683.683,0,0,0,284.119,119.869Z" transform="translate(-281.682 -119.732)" fill="#01baef"/>
        </g>
      </g>
      <g id="Group_101" data-name="Group 101" transform="translate(38.316 7.533)">
        <g id="Group_100" data-name="Group 100" transform="translate(0)">
          <path id="Path_17" data-name="Path 17" d="M284.5,96.37l-1.367-2.051a.684.684,0,0,0-1.135.759l1.367,2.051a.683.683,0,1,0,1.135-.759Z" transform="translate(-281.9 -94.046)" fill="#01baef"/>
        </g>
      </g>
      <g id="Group_103" data-name="Group 103" transform="translate(49.253 9.584)">
        <g id="Group_102" data-name="Group 102">
          <path id="Path_18" data-name="Path 18" d="M421.031,121.97l-1.367-2.051a.684.684,0,0,0-1.135.759l1.367,2.051a.683.683,0,1,0,1.135-.759Z" transform="translate(-418.434 -119.646)" fill="#01baef"/>
        </g>
      </g>
      <g id="Group_105" data-name="Group 105" transform="translate(49.236 7.54)">
        <g id="Group_104" data-name="Group 104">
          <path id="Path_19" data-name="Path 19" d="M420.653,94.269a.684.684,0,0,0-.957.135l-1.367,2.051a.683.683,0,0,0,1.135.759l1.367-2.051A.683.683,0,0,0,420.653,94.269Z" transform="translate(-418.216 -94.132)" fill="#01baef"/>
        </g>
      </g>
      <g id="Group_107" data-name="Group 107" transform="translate(41.064 6.179)">
        <g id="Group_106" data-name="Group 106">
          <path id="Path_20" data-name="Path 20" d="M324.159,84.138,317.323,77.3a.684.684,0,0,0-.964.964L323.2,85.1a.682.682,0,0,0,.964-.964Z" transform="translate(-316.195 -77.138)" fill="#01baef"/>
        </g>
      </g>
      <g id="Group_109" data-name="Group 109" transform="translate(41.026 6.172)">
        <g id="Group_108" data-name="Group 108" transform="translate(0)">
          <path id="Path_21" data-name="Path 21" d="M323.724,77.291a.684.684,0,0,0-.964-.075l-6.836,6.836a.682.682,0,1,0,.964.964l6.836-6.836A.683.683,0,0,0,323.724,77.291Z" transform="translate(-315.723 -77.052)" fill="#01baef"/>
        </g>
      </g>
    </g>
    <g id="Icon_base" data-name="Icon base" transform="translate(1161 3053)" fill="#01baef" stroke="#707070" stroke-width="1" opacity="0">
      <rect width="60" height="60" stroke="none"/>
      <rect x="0.5" y="0.5" width="59" height="59" fill="none"/>
    </g>
  </g>
</svg>
