<svg xmlns="http://www.w3.org/2000/svg" width="60" height="60" viewBox="0 0 60 60">
  <g id="Ventilation_Icon" data-name="Ventilation Icon" transform="translate(-1122 -1806)">
    <g id="Icon" transform="translate(1122.916 1805.885)">
      <path id="Path_22" data-name="Path 22" d="M32.887,24.437h.06a.676.676,0,0,0,.587-1.011l-1.807-3.162a.676.676,0,0,0-1.174,0l-1.807,3.162a.676.676,0,0,0,.587,1.011h.491a.676.676,0,0,1,.626.422L31.5,27.435a6.221,6.221,0,0,1-.686,5.939l-.494.609A7.73,7.73,0,0,0,30.1,42.7a.743.743,0,1,0,1.211-.86,6.225,6.225,0,0,1,.156-6.918l.494-.609a7.677,7.677,0,0,0,.909-7.434l-.613-1.509a.676.676,0,0,1,.626-.93Z" transform="translate(-1.564 3.99)" fill="#5799eb"/>
      <path id="Path_23" data-name="Path 23" d="M22.947,24.437a.676.676,0,0,0,.587-1.011l-1.807-3.162a.676.676,0,0,0-1.174,0l-1.807,3.162a.676.676,0,0,0,.587,1.011h.552a.676.676,0,0,1,.626.422l1.045,2.576a6.221,6.221,0,0,1-.686,5.939l-.494.609a7.73,7.73,0,0,0-.214,8.715.743.743,0,1,0,1.211-.86,6.225,6.225,0,0,1,.156-6.918l.494-.609a7.677,7.677,0,0,0,.909-7.434l-.612-1.509a.676.676,0,0,1,.626-.93Z" transform="translate(-0.768 3.99)" fill="#5799eb"/>
      <path id="Path_24" data-name="Path 24" d="M42.827,24.437h.12a.676.676,0,0,0,.587-1.011l-1.807-3.162a.676.676,0,0,0-1.174,0l-1.807,3.162a.676.676,0,0,0,.587,1.011h.432a.676.676,0,0,1,.626.422l1.045,2.576a6.222,6.222,0,0,1-.686,5.94l-.493.608a7.731,7.731,0,0,0-.214,8.715.743.743,0,1,0,1.211-.86,6.227,6.227,0,0,1,.156-6.919l.493-.608a7.677,7.677,0,0,0,.91-7.434L42.2,25.367a.676.676,0,0,1,.626-.93Z" transform="translate(-2.359 3.99)" fill="#5799eb"/>
      <path id="Path_25" data-name="Path 25" d="M45.61,41.8h-5.3a.93.93,0,0,1,0-1.858h5.3a3.07,3.07,0,0,0,2.755-3.3V18.156a3.07,3.07,0,0,0-2.755-3.3H13.544a3.07,3.07,0,0,0-2.755,3.3V36.642a3.07,3.07,0,0,0,2.755,3.3h1.719a.93.93,0,0,1,0,1.858H13.544A4.888,4.888,0,0,1,9,36.642V18.156A4.888,4.888,0,0,1,13.544,13H45.61a4.888,4.888,0,0,1,4.544,5.156V36.642A4.888,4.888,0,0,1,45.61,41.8Z" transform="translate(0 0)" fill="#5799eb"/>
    </g>
    <g id="Base" transform="translate(1122 1806)" fill="#5799eb" stroke="#707070" stroke-width="1" opacity="0.004">
      <rect width="60" height="60" stroke="none"/>
      <rect x="0.5" y="0.5" width="59" height="59" fill="none"/>
    </g>
  </g>
</svg>
