<svg id="Instagram" xmlns="http://www.w3.org/2000/svg" width="24" height="24" viewBox="0 0 24 24">
  <rect id="Base" width="24" height="24" rx="2" fill="#0b2239"/>
  <g id="instagram-2" data-name="instagram" transform="translate(6 6)">
    <g id="Group_1012" data-name="Group 1012" transform="translate(0)">
      <g id="Group_1011" data-name="Group 1011">
        <path id="Path_3615" data-name="Path 3615" d="M9,0H3a3.009,3.009,0,0,0-3,3V9a3.009,3.009,0,0,0,3,3H9a3.009,3.009,0,0,0,3-3V3A3.009,3.009,0,0,0,9,0Zm2,9a2,2,0,0,1-2,2H3a2,2,0,0,1-2-2V3A2,2,0,0,1,3,1H9a2,2,0,0,1,2,2Z" transform="translate(-0.005)" fill="#fff"/>
      </g>
    </g>
    <g id="Group_1014" data-name="Group 1014" transform="translate(8.5 2)">
      <g id="Group_1013" data-name="Group 1013">
        <circle id="Ellipse_1" data-name="Ellipse 1" cx="0.75" cy="0.75" r="0.75" fill="#fff"/>
      </g>
    </g>
    <g id="Group_1016" data-name="Group 1016" transform="translate(3 3)">
      <g id="Group_1015" data-name="Group 1015">
        <path id="Path_3616" data-name="Path 3616" d="M105.4,102.4a3,3,0,1,0,3,3A3,3,0,0,0,105.4,102.4Zm0,5a2,2,0,1,1,2-2A2,2,0,0,1,105.4,107.4Z" transform="translate(-102.405 -102.4)" fill="#fff"/>
      </g>
    </g>
  </g>
</svg>
