<svg xmlns="http://www.w3.org/2000/svg" viewBox="0 0 159.84 28.9"><defs><style>.cls-1{fill:#fff;}</style></defs><g id="Layer_2" data-name="Layer 2"><g id="Layer_1-2" data-name="Layer 1"><g id="White_Variation" data-name="White Variation"><path class="cls-1" d="M9.54,15.23A9.19,9.19,0,0,1,8,20.74a4,4,0,0,1-3.23,1.92,4.25,4.25,0,0,1-3.33-2.08C.48,19.28,0,17.32,0,14.72v-1H3.42v1.12c0,3,.45,4.48,1.35,4.48S6.11,18,6.11,15.14v-3c0-.39-.2-.58-.61-.58H3.3a3.16,3.16,0,0,1-2.61-.88A5.2,5.2,0,0,1,0,7.55V4.7A6.07,6.07,0,0,1,.83,1.09,3.58,3.58,0,0,1,3.84,0H5.7a3.54,3.54,0,0,1,3,1.09A6,6,0,0,1,9.54,4.7V6.34H6.11V4.06c0-.59-.23-.89-.7-.89H4.1c-.45,0-.68.3-.68.89V7.94c0,.3.22.44.64.44H6.75a2.39,2.39,0,0,1,2.16.93,5.44,5.44,0,0,1,.63,3Z"/><path class="cls-1" d="M19.78,16.7a6.41,6.41,0,0,1-1.3,4.12,3.67,3.67,0,0,1-2.83,1.61,3.56,3.56,0,0,1-2.79-1.57,6.41,6.41,0,0,1-1.34-4.16V10.34a4.22,4.22,0,0,1,.7-2.76,3.34,3.34,0,0,1,2.56-.8h1.73a3.34,3.34,0,0,1,2.55.8,4.15,4.15,0,0,1,.72,2.76Zm-3.17-.09V10.46c0-.57-.22-.86-.64-.86h-.64c-.43,0-.64.29-.64.86v6.15c0,1.75.32,2.62,1,2.62S16.61,18.36,16.61,16.61Z"/><path class="cls-1" d="M31.36,15.23A8.44,8.44,0,0,1,30,20.45a4.23,4.23,0,0,1-3.36,2,4.26,4.26,0,0,1-3.39-2,8.54,8.54,0,0,1-1.37-5.22V4.7a6,6,0,0,1,.83-3.61A3.57,3.57,0,0,1,25.7,0h1.82a3.58,3.58,0,0,1,3,1.09,6.07,6.07,0,0,1,.83,3.61V6.78H27.94V4.06c0-.59-.23-.89-.68-.89H26c-.47,0-.7.3-.7.89V14.94c0,2.76.45,4.13,1.34,4.13s1.27-1.37,1.32-4.13V12.48h3.42Z"/><path class="cls-1" d="M41.63,16.7a6.51,6.51,0,0,1-1.34,4.16,3.64,3.64,0,0,1-2.82,1.57,3.54,3.54,0,0,1-2.78-1.57,6.45,6.45,0,0,1-1.35-4.16V15a4,4,0,0,1,.73-2.74,3.46,3.46,0,0,1,2.59-.78h1.8V10.11c0-.28-.19-.41-.58-.41H34.05V6.78h4a4.12,4.12,0,0,1,2.8.74,3.8,3.8,0,0,1,.78,2.78Zm-3.17.45v-3H37.14q-.63,0-.63.6v2.37c0,1.39.32,2.08,1,2.08.27,0,.5-.19.7-.57A3.44,3.44,0,0,0,38.46,17.15Z"/><path class="cls-1" d="M47.07,22H43.74V0h3.33Z"/><path class="cls-1" d="M65.05,22H61.63V15h-2.5v7H55.71V4.7a6.07,6.07,0,0,1,.83-3.61,3.58,3.58,0,0,1,3-1.09h1.66a3.55,3.55,0,0,1,3,1.09,6,6,0,0,1,.83,3.61ZM61.63,11.49V4.06c0-.59-.23-.89-.7-.89H59.84c-.47,0-.71.3-.71.89v7.43Z"/><path class="cls-1" d="M71.39,0,69.25,5h-.07L67.07,0Zm-.54,22H67.52V6.78h3.33Z"/><path class="cls-1" d="M80.89,11.74H77.73V10.46c0-.57-.21-.86-.63-.86h-.81V22H73.12V6.78H77.6a3.4,3.4,0,0,1,2.56.8,4.09,4.09,0,0,1,.73,2.76Z"/><path class="cls-1" d="M98.05,15.23a9.19,9.19,0,0,1-1.54,5.51,4,4,0,0,1-3.23,1.92A4.25,4.25,0,0,1,90,20.58c-1-1.3-1.44-3.26-1.44-5.86v-1h3.42v1.12c0,3,.45,4.48,1.35,4.48s1.34-1.41,1.34-4.22v-3c0-.39-.2-.58-.61-.58h-2.2a3.16,3.16,0,0,1-2.61-.88,5.2,5.2,0,0,1-.69-3.12V4.7a6.07,6.07,0,0,1,.83-3.61,3.58,3.58,0,0,1,3-1.09h1.86a3.54,3.54,0,0,1,3,1.09,6,6,0,0,1,.84,3.61V6.34H94.62V4.06c0-.59-.23-.89-.7-.89H92.61c-.45,0-.68.3-.68.89V7.94c0,.3.22.44.64.44h2.69a2.39,2.39,0,0,1,2.16.93,5.44,5.44,0,0,1,.63,3Z"/><path class="cls-1" d="M108.16,28.9H105V22h-1.64a3.38,3.38,0,0,1-2.58-.8A4,4,0,0,1,100,18.4V6.78h3.17V18.27q0,.87.63.87H105V6.78h3.17Z"/><path class="cls-1" d="M118.24,16.7A6.4,6.4,0,0,1,117,20.82a3.67,3.67,0,0,1-2.83,1.61,3.55,3.55,0,0,1-2.8-1.57A6.85,6.85,0,0,1,110,16.54v-.16h3.17v.23c0,1.75.32,2.62,1,2.62s.94-.87.94-2.62v-.83c0-.62-.19-.93-.58-.93h-1.61c-1.93,0-2.9-1-2.9-3.11v-1.4a4.22,4.22,0,0,1,.71-2.76,3.31,3.31,0,0,1,2.56-.8h4.28V9.7h-3.77a.53.53,0,0,0-.61.6v1.12a.48.48,0,0,0,.54.55H115a3.62,3.62,0,0,1,2.59.69,4.06,4.06,0,0,1,.68,2.76Z"/><path class="cls-1" d="M125.85,9.7h-2.49v6.75a3.63,3.63,0,0,0,.57,2,11.19,11.19,0,0,0,1.7,1.95l-2.27,2.31a10.34,10.34,0,0,1-2.79-3.35,9.11,9.11,0,0,1-.57-3.55V9.7h-1.51V6.78H120V2.53h3.36V6.78h2.49Z"/><path class="cls-1" d="M135.26,16.54a6.85,6.85,0,0,1-1.34,4.32,3.58,3.58,0,0,1-2.82,1.57,3.54,3.54,0,0,1-2.78-1.57A6.36,6.36,0,0,1,127,16.7V10.34a4.15,4.15,0,0,1,.72-2.76,3.39,3.39,0,0,1,2.58-.8H132a3.38,3.38,0,0,1,2.56.8,4,4,0,0,1,.74,2.76v4.44h-5.12v1.83c0,1.75.32,2.62.94,2.62s1-.93,1-2.78v-.23h3.17Zm-3.17-4.19V10.46c0-.57-.21-.86-.63-.86h-.69c-.42,0-.63.29-.63.86v1.89Z"/><path class="cls-1" d="M149.88,22h-3.16V10.21a.54.54,0,0,0-.62-.61h-1.27a1.44,1.44,0,0,1,.19.77V22H142V10.46c0-.57-.2-.86-.61-.86h-1.06V22h-3.16V6.78h9.47a3.4,3.4,0,0,1,2.56.8,4.09,4.09,0,0,1,.73,2.76Z"/><path class="cls-1" d="M159.84,16.7a6.4,6.4,0,0,1-1.29,4.12,3.68,3.68,0,0,1-2.83,1.61,3.55,3.55,0,0,1-2.8-1.57,6.85,6.85,0,0,1-1.34-4.32v-.16h3.17v.23c0,1.75.32,2.62,1,2.62s.94-.87.94-2.62v-.83c0-.62-.19-.93-.58-.93h-1.61c-1.93,0-2.9-1-2.9-3.11v-1.4a4.28,4.28,0,0,1,.7-2.76,3.34,3.34,0,0,1,2.56-.8h4.29V9.7h-3.77a.53.53,0,0,0-.61.6v1.12a.48.48,0,0,0,.54.55h1.28a3.62,3.62,0,0,1,2.59.69,4.06,4.06,0,0,1,.68,2.76Z"/></g></g></g></svg>