<svg xmlns="http://www.w3.org/2000/svg" width="162" height="144" viewBox="0 0 162 144">
  <g id="American_Standard" data-name="American Standard" transform="translate(-453 -4332)">
    <rect id="Base" width="162" height="144" transform="translate(453 4332)" fill="#f7f7f7" opacity="0"/>
    <path id="American_Standard-2" data-name="American Standard" d="M94.344,34.74c-1.817.777-2.748,4.409-3.871,6.072-.849,1.246-1.818,2.543-2.584,3.871-.309.53-.579,1.811-1.129,2.069-.393.179-1.807-1.373-3.42-.906-4.209,1.208-11.5,9-11.077,14.624.144,1.948.465,3.38,2.392,3.582a6.671,6.671,0,0,0,5.776-2.775c.252-.3.662-1.1,1.064-1.2.483-.11.472.7.517,1.03a3.307,3.307,0,0,0,4.323,2.94c.89-.248,1.477-1.077,2.166-1.193.845-.15,1.292.864,1.9,1.063,1.392.451,3.064-.273,4.037-.679a12.2,12.2,0,0,0,3.583-2.906c.57-.563.628-1.371,1.548-1.614.38.652.114,1.791.033,2.583-.149,1.409.533,3.127,2.2,2.421,3.12-1.326,5.128-4.287,7.389-6.519.628-.617,1.021-1.555,1.971-1.837.263.679-.7,3.244-1.13,3.8-.292.376-1.178,3.782-.841,4.261.222.312.684.172,1.131.2s.951.281,1.422.094c.972-.387,2.786-5.94,3.487-7.194a14.438,14.438,0,0,1,2.937-3.848c1.071-.9,2.456-2.188,4.034-2.481.747-.142,2.177.116,2.778-.195,1.663-.876-.461-3.08-1.905-2.775a18.371,18.371,0,0,0-2.035.324c-1,.309-2.074,1.5-3.065,1.546-.346-.578.8-4.548-2.258-3.324-.988.394-1.593,1.727-2.23,2.52-2.211,2.756-5.044,5.065-7.326,7.746-.8.938-1.618,2.58-2.906,2.971-.766-2.939,3.054-6.675,3.324-9.3.225-2.2-2.35-.345-2.228-1.389.052-.442.375-.891.29-1.419-.26-1.627-3.656-.706-4.969-.42-2.666.574-8.144,6.913-9.424,9.229-.927,1.674-1.1,3.992-2.745,4.944-1.013.587-1.469-.285-1.517-1.227-.147-2.872,1.2-4.885,2-6.879,1.925-4.792,4.464-8.674,6.909-12.976a15.952,15.952,0,0,0,1.742-2.839,1.676,1.676,0,0,0-1.84-2.2,2.374,2.374,0,0,0-.451.191ZM37.113.011a1.728,1.728,0,0,1,1.9,1.323A8.261,8.261,0,0,1,38.5,4.271c-.766,3.662-2.046,6.88-2.872,10.359-.687,2.883,1.792,1.343,3.747,1.843,1.094.281.781,1.447,1.547,1.81,1.456-1.183,3.713-7.739,6.1-7.071a1.388,1.388,0,0,1,.87,1.742,6.24,6.24,0,0,1-1.225,2.293c-1.937,2.228-3.258,5.2-4.682,7.909-.662,1.257.39.6.841-.033.782-1.1,1.712-1.905,2.486-3.034,1.039-1.525,2.819-2.629,4-4.036.3-.358.508-.905.9-1.163,2.361-1.533,3.521.83,3.035,3.36-.1.515-1.139,4.055-.226,3.193.5-.472,1.028-.938,1.521-1.422.977-.966,1.873-2.524,3.065-3.226.492-.293,1.679-.889,2.321-.451C62.226,17.911,55.5,27.831,56.8,29c.522.462,2.11-.945,2.391-1.163,2.054-1.6,2.415-1.813,3.357-4.618A27.378,27.378,0,0,1,65.037,17.5c.8-1.313,5.228-7.374,7.356-5.745,1.467,1.123.953,3.541.424,5.325-1.393,4.708-4.57,6.519-7.266,9.717-.995,1.18.356,1.28,1.133.582.579-.526,1.366-.848,1.935-1.389,2.118-2,4.089-4.184,6.163-6.229a26.565,26.565,0,0,0,2.746-2.97c.74-1,.774-2.234,2-2.744.89-.375,1.723.563,1.807,1.257.116.977,1.028-.307,1.225-.578.311-.446.628-.838,1.356-.583,1.806.634,1.137,2.211,2.035,2.68,1.368.716,5.685-3,6.226-3.744.342-.469.559-.846,1.261-.968a1.921,1.921,0,0,1,1.9.645,1.432,1.432,0,0,1,.158.195l.067.094a1.146,1.146,0,0,0,.064.1c.022.04.056.112.067.134.259.653-4.168,9.331-4.746,11.07-.461,1.381-1.263,2.647-1.679,4.2-.184.7-.048,2.19-.417,2.875-.194.349-1.04.582-1.392.77a1.211,1.211,0,0,1-1.131-.064c-1.69-.938.634-6.756,1.1-7.907.172-.424,1.993-4.383,1.388-4.681-.7-.346-1.964.218-2.546.323-1.672.286-2.333-1.5-2.909-1.265-1.726.728-4.7,8.838-5.648,11.077-.409.964-.451,1.809-1.291,2.323-2.418,1.473-2.546-1.974-2.036-3.358.383-1.028,2.132-4.356,1.874-5.391-1.144.239-1.488,1.154-2.226,1.777-2.384,2.008-4.813,4.612-7.554,6.135-3.733,2.068-3.89-1.418-5.227-1.1-1.54.363-2.58,1.858-4.458,2.224-3.665.728-4.479-2.144-3.519-4.873s-.05-1.623-1.223-.71a.437.437,0,0,0-.034.03q-.551.448-1.064.938a7.329,7.329,0,0,1-.582.582c-.15.113-.282.2-.418.322a.977.977,0,0,0-.2.229,6.314,6.314,0,0,1-1.356,1.709c-1.006.631-3.179-.149-2.97-1.422.229-1.379,1.5-2.753,1.712-4.164.158-1.062,1.047-1.607.874-2.907-1.353.254-6.4,7.09-7.685,8.459-.454.484-.451,1.593-1,1.97a2.8,2.8,0,0,1-2.224.191c-2.82-.976-.275-6.692.455-8a57.7,57.7,0,0,0,2.646-5.392,7.921,7.921,0,0,1-2.909.357c-1.427-.146-2.9-.739-3.488.71-.258.642-.225,1.46-.484,2.1a42.021,42.021,0,0,0-2.257,7.552c-.27,1.453.042,3.341-.613,4.393a2.322,2.322,0,0,1-2.486.547,2.258,2.258,0,0,1-1.16-1.518c-.342-1.107-.36-2.429-.679-3.548a11.358,11.358,0,0,0-1.257-2.261c-1.19-2.137,2.963.1,3.548-.9.487-.84.378-2.257.773-3.1.228-.478,1.168-2.734.743-3.357l-.031-.029a49.678,49.678,0,0,0-7.682.965c-.822.473-1.356,1.765-2,2.455-.777.831-1.321,1.866-2.065,2.744C16.81,27.952,15.234,29.352,14,31.09c-.542.766-1.341,2.789-2.034,3.262A2.524,2.524,0,0,1,9.093,33.7c-.713-1.328,1.424-3.177,1.97-3.811.8-.912,6.894-7.517,6.617-8.327a6.676,6.676,0,0,0-1.611-.386c-1.085-.258-4.341-.808-3.134-2.586.726-1.069,2.5-.6,3.455-.222a9.1,9.1,0,0,0,4.55-.292c.808-.519,2.468-3.221,3.131-4.129,1.8-2.472,3.938-4.788,5.876-7.2.994-1.238,2.524-2.175,3.488-3.422C34.327,2.177,35.3.191,37.113.011ZM98.056,9.6c2.327-.267,2.227-3.875-.354-3.616-2.376.237-2.3,3.923.354,3.616ZM33.175,8.176c-.836.165-5.1,6.083-6.1,7.07a7.354,7.354,0,0,0-1.13,1.257c-1.045,1.61,2.013.661,2.742.551a9.738,9.738,0,0,0,2.327-.258c1.041-.545,1.683-5.617,2.193-7.071.075-.211.681-1.691-.031-1.548Zm66.4,8.618a11.245,11.245,0,0,0-1.839,1.454A16.954,16.954,0,0,1,95.767,20.7c-1.353,1.089-1.772,2.736-2.712,4.266a6.944,6.944,0,0,0-.842,5.2c1.325,4.171,6.826,2.2,9.365.549a17.258,17.258,0,0,1,2.677-1.809l.1-.067c.4-.045,1.111,1.892,1.452,2.164,2.353,1.889,4.871-.776,6.132-1.84a13.135,13.135,0,0,0,1.392-.938c.47-.525.4-1.02,1.191-1.257.3.646-.393,1.91-.322,2.872.15,1.983,1.214,2.641,3.1,1.967.6-.211.973-.9,1.353-1.353.93-1.1,2.14-2.046,3.038-3.163,1.283-1.6,2.38-3.214,3.775-4.685a1.064,1.064,0,0,1,.324-.256c.537-.184.11.859.061,1-.585,1.747-2.012,7.239,1.39,6.777a3.272,3.272,0,0,0,2.228-1.55c1.765-2.318,4.528-3.812,6.324-6.165.35-.453.579-.9,1.261-1.033.139.512-1.775,5.521-2.132,6.36-.491,1.168-1.408,4.854-.191,5.779a1.094,1.094,0,0,0,.774.1,1.367,1.367,0,0,0,1.035-.744c.514-1.217.592-2.456,1.1-3.646,1.015-2.419,6.471-11.6,4.679-14.461a2.25,2.25,0,0,0-.161-.195,1.584,1.584,0,0,0-1.712-.484c-1.754.669-3.293,2.707-4.517,4a34.522,34.522,0,0,1-2.9,2.486,19.837,19.837,0,0,0-1.844,2.3c-.131.15-1.3,1.392-1.516.966-.4-.773.795-2.227.97-2.906.373-1.479,1.494-2.928,1.84-4.392.18-.77.221-2.05-.256-2.519-.39-.371-.722-.951-1.521-.807-1.263.233-2.314,1.666-3.034,2.517-1.8,2.13-4,4.024-5.812,6.166a17.888,17.888,0,0,1-2.419,3c-.364-1.629,6.673-12.118,2.064-11.587-1.247.142-1.363,1.438-2.515,1.483.029,0-.071.04-.1.034a6.8,6.8,0,0,0-1.709-.228c-2.727.279-4.278,2.246-6.072,3.518a8.33,8.33,0,0,0-1.13,1.39,31.654,31.654,0,0,0-2.646,3.037c-.6.906-.936,1.873-1.58,2.711-.677.871-2.006,1.34-2.94,1.967a7.082,7.082,0,0,1-2.194,1.388c-1.105.3-2,1.153-3.1,1.289-4.3.544.641-6.845.936-7.261a1.459,1.459,0,0,0,.228-.322c.048-.146.029-.346.094-.451a17.167,17.167,0,0,1,1.651-1.843,10.938,10.938,0,0,1,1.546-1.423c.438-.328.548.08.323.425-.24.363-.721.741-.808,1.223a1.436,1.436,0,0,0,2.036,1.517c.857-.358,4.55-5.167,4.811-6.131a2.678,2.678,0,0,0-.521-2.133,2.338,2.338,0,0,0-2.1-1.064c-2.932.369-4.285,2.9-6.138,4.364ZM69.3,16.7c-.608.136-3.972,4.871-2.1,4.456C67.992,20.979,71.122,16.29,69.3,16.7Zm46.672,2.616c-.732,1.465-5.455,8.152-6.78,8.426-.906-2.34,5.233-9.462,6.845-9.522C116.655,18.192,116.059,19.136,115.97,19.312Zm26.856,15.335c-.605.316-.908,1.1-1.259,1.675-.859,1.426-2.053,3.018-2.774,4.522a46.048,46.048,0,0,1-2.258,4.163c-.256.414-.285.987-.582,1.356-.323.388-.84-.263-.97-.424C131.1,41.334,117.393,57.454,122.3,63.275a2.514,2.514,0,0,0,2.458,1,8.062,8.062,0,0,0,2.9-.966c.527-.357,1.389-1.642,1.968-1.745.823-.144-.023,3.919,2.068,3.68.052-.011.2-.041.289-.067.06-.015.17-.065.26-.1a3.193,3.193,0,0,0,.965-.514c1.257-1.045,2.741-1.979,3.9-3.129.369-.365,3.482-2.158,1.743-2.421s-4.672,1.651-5.034,1.453c-.279-.154-.075-1.033,0-1.293,2.1-7.491,5.885-13.678,9.456-19.848.3-.526,2.706-3.431,2.712-3.458.157-.923-1.656-1.536-2.616-1.419A1.629,1.629,0,0,0,142.827,34.647ZM13.547,40.553a11.465,11.465,0,0,0-2.035,2.678c-1.844,4.194,2.68,8.377,4.521,10.492,1.171,1.338,2.92,3.016,1.874,5.617-.626,1.537-2.9,2.752-4.551,3.259C9.244,63.857.3,62.184,7.318,58.985c.187-.085,2.512-.379,1.323-.9C6.428,57.1,1.641,59.4.8,60.338a2.578,2.578,0,0,0,.161,3.875C3.132,66,7.378,66.484,11.385,66.18A15.664,15.664,0,0,0,21.1,61.888c5.8-5.73-.324-10.141-3.713-13.911-.785-.875-1.766-1.5-1.548-3.388.318-2.787,5.336-5.7,8.974-4.874,1.044.236.54.857,1,1.648.7,1.189,2.832.924,3.874.256a3.408,3.408,0,0,0,1.581-2.29,1.708,1.708,0,0,0-.709-1.486c-1.048-.908-3.9-1.465-5.815-1.326-4.659.341-8.883,1.33-11.2,4.036Zm23.341-2.9c-.532.656-.585,1.705-1.067,2.417a42.236,42.236,0,0,0-2.357,3.874c-.583,1.135-.795,2.911-1.837,3.555-2.308,1.4-11.145-1.315-7.974,4.291a4.309,4.309,0,0,0,1.193,1.323,1.212,1.212,0,0,0,.709-.033,2.035,2.035,0,0,0,.517-.289,2.465,2.465,0,0,0,.324-.26,6.684,6.684,0,0,1,1.032-1.063c.748-.47,3.08-.7,2.613.581A21.307,21.307,0,0,1,28.913,54.3c-.788,1.573-.924,3.822-1.968,5.2-.9,1.172-1.322-3.035-2.258,1.709-.273,1.364-.825,4.176.774,4.456,3.113.541,5-5.819,5.971-7.975.777-1.736,1.825-3.778,2.677-5.487a4.525,4.525,0,0,1,.423-.774c.286-.363,8.144-2.8,4.127.582-1.826,1.54-3.95,3.683-4.743,6.2-.563,1.776-.83,3.906.616,5.066,2.468,1.983,6.482-.24,8.036-1.548.324-.275,1.081-1.416,1.454-1.486a.43.43,0,0,1,.161.033c.195,1.27-.6,3.02.548,3.81,3.613,2.477,9.714-6.323,11.072-8.231.453-.639.874-1.4,1.713-1.648.245,2.226-1.343,3.944-.905,6.65a3.088,3.088,0,0,0,.384,1.164c1.776,2.579,5.336-2.359,6.586-3.485,1.332-1.212,2.366-2.745,3.649-4.006.435-.429.852-1.295,1.612-1.353.2,2.584-1.824,4.356-2.229,6.68-.308,1.773-1.265,3.921-.195,5.325,1.9,2.483,2.263-1.457,2.651-2.677.328-1.045.923-2.189,1.258-3.2.072-.215.084-.36.159-.548s.166-.368.26-.582c.807-1.8,4.747-9.353,2.487-11.1a1.529,1.529,0,0,0-1.584-.225c-1.574.526-5.264,4.2-6.36,5.487a42.272,42.272,0,0,1-3.356,3.384c-2.507,2.344.852-4.363.9-4.516a11.647,11.647,0,0,0,1-2.97A1.694,1.694,0,0,0,63,46.459c-1.934-1.009-3.5.834-4.648,1.967a49.3,49.3,0,0,0-5.26,5.846,37.837,37.837,0,0,1-3.778,4.873c-.793.785-1.145.7-.676-.611.729-2.044,1.949-3.367,2.776-5.17a11.243,11.243,0,0,1,1.259-2.03,10.271,10.271,0,0,0,.8-1.259c.36-.722.209-1.522-.837-1.258-.218.05-.586.263-.872.127-.386-.183-.222-1.067-.451-1.419A3.9,3.9,0,0,0,48.6,46.393a2.137,2.137,0,0,0-.225.065c-.89.274-10.822,1.724-11.75.9-.011-.01-.057-.02-.063-.03-.2-.608,3.466-6.553,3.969-7.131.478-.552,1.3-1.874.487-2.457a4.407,4.407,0,0,0-1.486-.319,5.905,5.905,0,0,0-1.709-.229,1.268,1.268,0,0,0-.936.454Zm95.189,12.426c.308,2.967-4.067,9.7-6.2,10.293-.793.224-.844-.806-.774-1.546.217-2.438,4.368-9.293,6.23-9.556.607-.086.69.315.74.808Zm-48.319.808c-.624,2.162-4.327,8.868-6.135,9.392a1.029,1.029,0,0,1-.936-.159c-1.885-2.083,4.875-9.879,6.454-10.138C83.834,49.864,83.909,50.356,83.757,50.883Zm15.106,1.483c-.292.346-2.482,2.741-1.612,3.1.507.209.886-.281,1.289-.129A13,13,0,0,1,93.7,60.241c-.492.26-1.141.324-1.388-.226-.483-1.074.4-2.284.807-2.937,1.062-1.69,4.4-6.665,6.356-7,1.7-.3-.582,2.26-.608,2.291ZM45.572,54.108a18.021,18.021,0,0,1-4.681,5.1c-1.029.758-4.424,2.659-2.94-.871C38.8,56.328,43.518,51,45.8,50.687,47.2,50.5,45.784,53.65,45.572,54.108Z" transform="translate(461 4371)" fill="#387db7"/>
  </g>
</svg>
