<svg xmlns="http://www.w3.org/2000/svg" width="24" height="24" viewBox="0 0 24 24">
  <g id="Calendar" transform="translate(-11346 4544)">
    <rect id="Base" width="24" height="24" transform="translate(11346 -4544)" fill="#fff" opacity="0"/>
    <g id="Icon" transform="translate(11350 -4539)">
      <path id="Path_3631" data-name="Path 3631" d="M14.755,3.569H12.877V3.3a.533.533,0,1,0-1.067,0v.273H6.189V3.3a.533.533,0,1,0-1.067,0v.273H3.245A2.278,2.278,0,0,0,1,5.869V15.45a2.278,2.278,0,0,0,2.245,2.3H14.755A2.278,2.278,0,0,0,17,15.45V5.869a2.278,2.278,0,0,0-2.245-2.3ZM3.245,4.662H5.123v.273a.533.533,0,1,0,1.067,0V4.662h5.621v.273a.533.533,0,1,0,1.067,0V4.662h1.877a1.193,1.193,0,0,1,1.179,1.207V7.164H2.067V5.869A1.193,1.193,0,0,1,3.245,4.662Z" transform="translate(-1 -2.75)" fill="#76ca3c"/>
    </g>
  </g>
</svg>
