<svg xmlns="http://www.w3.org/2000/svg" width="24" height="24" viewBox="0 0 24 24">
  <g id="Empty_Star_Icon" data-name="Empty Star Icon" transform="translate(-512 -1460)">
    <g id="Base" transform="translate(512 1460)" fill="#fca120" stroke="#707070" stroke-width="1" opacity="0">
      <rect width="24" height="24" stroke="none"/>
      <rect x="0.5" y="0.5" width="23" height="23" fill="none"/>
    </g>
    <g id="star_1_" data-name="star (1)" transform="translate(515 1451.206)">
      <g id="Group_1007" data-name="Group 1007" transform="translate(0 11.794)">
        <path id="Path_3601" data-name="Path 3601" d="M18.842,18.629a.553.553,0,0,0-.446-.376l-5.85-.85L9.931,12.1a.553.553,0,0,0-.991,0L6.323,17.4l-5.849.85a.553.553,0,0,0-.306.943L4.4,23.322l-1,5.826a.553.553,0,0,0,.8.583L9.435,26.98l5.232,2.751a.553.553,0,0,0,.8-.583l-1-5.826L18.7,19.2A.553.553,0,0,0,18.842,18.629Zm-5.353,4.1a.553.553,0,0,0-.159.489l.859,5.008-4.5-2.365a.553.553,0,0,0-.515,0l-4.5,2.365.859-5.008a.553.553,0,0,0-.159-.489L1.741,19.186l5.029-.731a.553.553,0,0,0,.416-.3L9.435,13.6l2.249,4.557a.553.553,0,0,0,.416.3l5.029.731Z" transform="translate(0 -11.794)" fill="#fca120"/>
      </g>
    </g>
  </g>
</svg>
