<svg xmlns="http://www.w3.org/2000/svg" width="24" height="24" viewBox="0 0 24 24">
  <g id="Full_Star" data-name="Full Star" transform="translate(-559 -1451)">
    <g id="Base" transform="translate(559 1451)" fill="#fca120" stroke="#707070" stroke-width="1" opacity="0">
      <rect width="24" height="24" stroke="none"/>
      <rect x="0.5" y="0.5" width="23" height="23" fill="none"/>
    </g>
    <g id="star" transform="translate(1129 2269.204)">
      <g id="Group_1006" data-name="Group 1006" transform="translate(-567 -815.204)">
        <path id="Path_3600" data-name="Path 3600" d="M18.842,18.631a.553.553,0,0,0-.446-.376l-5.85-.85L9.931,12.1a.553.553,0,0,0-.991,0L6.323,17.4l-5.85.85a.553.553,0,0,0-.306.943L4.4,23.324l-1,5.826a.553.553,0,0,0,.8.583l5.232-2.751,5.232,2.751a.553.553,0,0,0,.8-.583l-1-5.826L18.7,19.2A.553.553,0,0,0,18.842,18.631Z" transform="translate(0 -11.796)" fill="#fca120"/>
      </g>
    </g>
  </g>
</svg>
