<svg xmlns="http://www.w3.org/2000/svg" width="40" height="40" viewBox="0 0 40 40">
  <g id="Certified_Technicians" data-name="Certified Technicians" transform="translate(-601 -1117)">
    <g id="Base" transform="translate(601 1117)" fill="#fff" stroke="#707070" stroke-width="1" opacity="0">
      <rect width="40" height="40" stroke="none"/>
      <rect x="0.5" y="0.5" width="39" height="39" fill="none"/>
    </g>
    <g id="verify_1_" data-name="verify (1)" transform="translate(605 1109.425)">
      <g id="Layer_2_87_" transform="translate(0 12.575)">
        <path id="Path_3633" data-name="Path 3633" d="M29.127,24.508a5.287,5.287,0,0,1-1.078-.961,4.939,4.939,0,0,1,.306-1.5c.337-1.14.756-2.559-.052-3.669s-2.3-1.157-3.5-1.187a5.124,5.124,0,0,1-1.493-.16,5.072,5.072,0,0,1-.607-1.357c-.4-1.136-.9-2.549-2.226-2.981-1.291-.42-2.449.378-3.47,1.078a4.864,4.864,0,0,1-1.365.767,4.855,4.855,0,0,1-1.365-.767c-1.021-.7-2.18-1.5-3.471-1.078-1.33.432-1.826,1.845-2.226,2.981a5.171,5.171,0,0,1-.6,1.352,5.008,5.008,0,0,1-1.5.165c-1.195.03-2.682.068-3.5,1.187s-.389,2.53-.052,3.67a5.078,5.078,0,0,1,.308,1.49,5.1,5.1,0,0,1-1.081.971C1.2,25.243,0,26.159,0,27.575s1.2,2.332,2.164,3.067a5.287,5.287,0,0,1,1.078.961,4.939,4.939,0,0,1-.306,1.5c-.337,1.14-.756,2.559.052,3.669s2.3,1.157,3.5,1.187a5.124,5.124,0,0,1,1.493.16,5.073,5.073,0,0,1,.607,1.357c.4,1.136.9,2.549,2.226,2.981a2.342,2.342,0,0,0,.73.117,5.161,5.161,0,0,0,2.74-1.195,4.863,4.863,0,0,1,1.365-.767,4.857,4.857,0,0,1,1.365.767c1.021.7,2.18,1.5,3.47,1.078,1.33-.432,1.826-1.845,2.226-2.981a5.171,5.171,0,0,1,.6-1.352,5.008,5.008,0,0,1,1.5-.165c1.195-.03,2.682-.068,3.5-1.187s.389-2.53.052-3.67a5.078,5.078,0,0,1-.308-1.49,5.1,5.1,0,0,1,1.081-.971c.964-.735,2.163-1.651,2.163-3.067s-1.2-2.332-2.164-3.067Zm-7.671.73-6.519,6.519a1.3,1.3,0,0,1-1.843,0h0L9.834,28.5a1.3,1.3,0,0,1,1.82-1.867l.023.023,2.338,2.338,5.6-5.6a1.3,1.3,0,0,1,1.867,1.82Z" transform="translate(0 -12.575)" fill="#fff"/>
      </g>
    </g>
  </g>
</svg>
