<svg xmlns="http://www.w3.org/2000/svg" width="40" height="40" viewBox="0 0 40 40">
  <g id="Certified_Technicians" data-name="Certified Technicians" transform="translate(-601 -1117)">
    <g id="Base" transform="translate(601 1117)" fill="#fff" stroke="#707070" stroke-width="1" opacity="0">
      <rect width="40" height="40" stroke="none"/>
      <rect x="0.5" y="0.5" width="39" height="39" fill="none"/>
    </g>
    <path id="high-quality" d="M33.1,19.541l1.929,1.444a3.072,3.072,0,0,0,1.741.634l2.405.134a3.162,3.162,0,0,1,2.939,2.466l.55,2.346a3.071,3.071,0,0,0,.926,1.6l1.757,1.649a3.162,3.162,0,0,1,.666,3.778l-1.087,2.15a3.071,3.071,0,0,0-.322,1.824l.286,2.392a3.162,3.162,0,0,1-1.918,3.323l-2.215.948a3.071,3.071,0,0,0-1.419,1.191l-1.319,2.016a3.162,3.162,0,0,1-3.605,1.312l-2.306-.7a3.071,3.071,0,0,0-1.852,0l-2.306.7a3.162,3.162,0,0,1-3.605-1.312l-1.319-2.016a3.072,3.072,0,0,0-1.419-1.191L19.4,43.283a3.162,3.162,0,0,1-1.918-3.323l.286-2.392a3.071,3.071,0,0,0-.322-1.824l-1.087-2.15a3.162,3.162,0,0,1,.666-3.778l1.757-1.649a3.071,3.071,0,0,0,.926-1.6l.549-2.346a3.162,3.162,0,0,1,2.939-2.466l2.405-.134a3.071,3.071,0,0,0,1.741-.634l1.929-1.444a3.162,3.162,0,0,1,3.837,0ZM29.954,34.719l-2.093-2.093A1.389,1.389,0,0,0,25.9,34.591l3.078,3.078a1.39,1.39,0,0,0,1.965,0c1.855-1.856,3.69-3.732,5.537-5.6a1.387,1.387,0,1,0-1.968-1.954Zm1.23-11.173a10.346,10.346,0,1,0,7.316,3.03,10.314,10.314,0,0,0-7.316-3.03Zm6.6,3.746a9.334,9.334,0,1,0,2.734,6.6A9.3,9.3,0,0,0,37.785,27.293Z" transform="translate(589.998 1103.107)" fill="#fff"/>
  </g>
</svg>
